<svg version="1.2" xmlns="http://www.w3.org/2000/svg" viewBox="0 0 687 687" width="687" height="687">
	<style>
		.s0 { fill: #000000 } 
		.s1 { fill: none;stroke: #000000;stroke-miterlimit:100;stroke-width: 25 } 
	</style>
	<path class="s0" d="m364.95 314.7l0.51 191.48q4.61 0 4.61 3.08 0 8.19-21.5 24.57-21.51 16.39-30.72 16.39-5.12 0-3.59-5.64 0.52-4.09 6.15-10.24 7.17-8.7 4.09-10.24-15.36-7.16-15.36-11.77 0-1.03 4.87-12.29 4.86-11.26 6.4-25.6 2.56-25.09 1.53-34.82 0-6.65-4.09-27.64-6.15-21.51-13.31-40.45-2.56-7.17-11.78-17.92-11.78-13.83-14.85-18.43l35.84-23.04q1.03-0.52 21.51-17.92 15.36-13.32 21.5-13.32 10.24 0 10.24 14.85 0 3.07-1.02 9.47-1.03 6.4-1.03 9.48zm-49.66-49.67l83.45-80.38q9.73-9.22 9.73-22.02 0-3.58-1.02-6.65-1.54-6.15-7.17-15.36-7.68-4.61-10.75-4.61-17.92 1.53-14.85 6.14 1.54 2.05-12.8 33.28-9.73 17.41-28.16 50.18-9.73 17.92-18.43 39.42z"/>
	<path id="Shape 1" fill-rule="evenodd" class="s1" d="m343.25 673c-182.62 0-330.24-147.4-330.24-329.75 0-182.36 147.62-329.76 330.24-329.76 182.63 0 330.25 147.4 330.25 329.76 0 182.35-147.62 329.75-330.25 329.75z"/>
</svg>