<?xml version="1.0" encoding="utf-8"?>
<svg width="800px" height="800px" viewBox="0 0 512 512" xmlns="http://www.w3.org/2000/svg">
  <path fill="#000000" d="M 54.275 120.461 L 29.306 123.774 L 32.869 168.96 L 62.713 165.71 L 54.275 120.46 L 54.275 120.461 Z M 372.242 152.586 L 337.212 205.4 L 451.836 324.804 L 506.711 292.648 L 372.241 152.586 L 372.242 152.586 Z M 62.463 184.555 L 45.243 186.43 C 48.196 206.084 53.523 225.022 60.9 242.899 L 92.493 213.18 C 81.436 204.632 71.337 195.05 62.463 184.555 Z M 118.867 214.055 L 58.243 271.054 L 72.118 294.774 L 144.932 228.085 L 118.867 214.055 Z M 334.711 228.68 C 277.482 264.096 210.346 266.449 152.992 246.054 L 94.149 299.898 C 135.212 352.202 197.229 386.21 267.087 386.21 C 332.47 386.212 390.204 366.296 428.961 326.804 L 418.491 315.898 C 403.099 328.295 382.821 337.988 363.741 341.273 C 375.167 332.485 388.101 320.921 398.805 309.397 C 365.923 331.667 324.967 345.119 297.522 341.741 C 329.084 333.641 367.952 309.271 387.929 284.084 L 363.554 258.71 C 344.867 267.79 321.098 272.595 300.521 270.71 C 316.284 264.16 335.127 254.452 349.771 244.366 L 334.709 228.68 L 334.711 228.68 Z" style="transform-box: fill-box; transform-origin: 50% 50%;" transform="matrix(0.965926, -0.258819, 0.258819, 0.965926, 0, 0.000001)"/>
</svg>