<svg version="1.2" xmlns="http://www.w3.org/2000/svg" viewBox="0 0 705 705" width="705" height="705">
	<style>
		.s0 { fill: #ffffff;stroke: #000000;stroke-miterlimit:100;stroke-width: 10 } 
		.s1 { fill: #000000 } 
	</style>
	<path id="Shape 1" fill-rule="evenodd" class="s0" d="m867-143v1121h-1027v-1121z"/>
	<g>
		<g id="stage">
			<g id="layer1-1">
				<g id="Group-1">
					<path id="CompoundPath-1" fill-rule="evenodd" class="s1" d="m263.25 140.69c2.59 1.15 6.58 3.91 8.85 6.13 3.6 3.53 4.54 3.97 7.2 3.38 4.47-0.98 14.8 1.98 20.81 5.96 7.97 5.28 14.31 15.89 14.31 23.97v3.24l11.36-0.5c24.18-1.07 45.54 5 64 18.17 10.18 7.26 22.51 21.47 26.11 30.07 2.08 4.98 0.42 7.64-10.47 16.77-11.48 9.63-20.21 14.76-32.06 18.83-9.05 3.11-10.2 3.26-24.61 3.3l-15.13 0.04-0.42 8.49c-0.26 5.18-1.1 9.89-2.15 12.07-1.7 3.54-1.68 3.65 1.29 9.93 1.65 3.5 3.52 8.7 4.17 11.56l1.16 5.21 4.61-1.34c20.48-5.96 47.93-9.5 74.03-9.54 42.51-0.08 73.36 6.23 103.4 21.14 15.83 7.86 28.12 16.81 40.33 29.36 17.32 17.8 30.72 41.97 32.73 59.02 0.35 2.99 0.91 5.43 1.25 5.42 0.34-0.01 1.96-1.86 3.61-4.11 10.72-14.62 37.43-33.26 41.63-29.06 0.81 0.81-0.56 2.93-5.13 7.91-12.46 13.6-23.23 32.58-30.14 53.14-2.12 6.33-3.86 11.83-3.86 12.22 0 0.39 4.83-4.13 10.73-10.05 7.21-7.22 12.88-11.94 17.24-14.32 6.96-3.81 14.38-6.2 16.05-5.17 0.57 0.35-2.27 4.07-6.36 8.36-10.31 10.79-15.64 18.85-22.07 33.39l-2.46 5.57 6.17-6.62c7.5-8.05 19.54-17.16 28.05-21.22 11.3-5.4 25.57-8.36 25.57-5.31 0 0.43-3.07 3.13-6.83 6-10.01 7.63-22.43 21.03-29.2 31.5-3.26 5.04-5.93 9.42-5.93 9.74 0 0.32 8.66 0.56 19.23 0.53 20.07-0.05 31.07 0.89 30.5 2.62-0.19 0.56-6.17 2.51-13.3 4.32-34.48 8.81-68.35 23.36-94.33 40.56-13.79 9.12-17.16 10.77-20.62 10.11-2.85-0.54-6.39-4.65-6.39-7.4 0-7.22 16.14-21.38 35.93-31.52 8.23-4.22 8.37-4.35 4.03-3.71-7.48 1.1-27.73 8.3-40.68 14.46-13.51 6.43-23.35 12.58-39.62 24.79-9 6.76-11.48 8.15-14.48 8.12-6.7-0.06-10.23-5.35-7.66-11.5 1.98-4.74 13.99-16.22 23.57-22.52 4.37-2.88 7.94-5.34 7.94-5.46 0-0.47-7.99 1.58-15.99 4.11-16.54 5.23-29.9 12.53-45.38 24.81-12.61 10-13.57 10.59-17.27 10.59-3.66 0-6.89-2.61-7.82-6.36-0.96-3.78 2.02-8.31 12.07-18.39 9.52-9.55 9.46-9.84-1.03-5.48-16.22 6.75-31.88 16.43-44.84 27.73l-7.4 6.46-1.59-6.72c-2.09-8.82-3.6-22-2.92-25.46 1.04-5.26-1.84-2.96-10.32 8.26-5.62 7.43-10.99 16.85-14.38 25.21-2.24 5.51-3.96 7.37-3.96 4.27 0-2.83-13.02-27.05-17.93-33.36-5.5-7.07-4.84-7.39-7.07 3.36-1.29 6.19-3.26 12.56-7.22 23.3l-3.07 8.32-10.08-9.96c-16.75-16.54-28.35-24.52-45.91-31.58-4.88-1.96-9.05-3.56-9.28-3.56-0.22 0 2.96 3.32 7.07 7.38 12.93 12.76 16.17 20.08 11.12 25.13-4.73 4.73-7.85 3.56-21.2-7.89-10.87-9.31-20.13-15.57-29.87-20.18-8.33-3.94-24.79-9.44-28.28-9.44-0.81 0 1.27 1.91 4.62 4.25 19.27 13.42 29.21 26.94 23.48 31.93-6.11 5.34-9.46 4.56-20.75-4.83-20.2-16.8-43.7-29.73-64.91-35.71-6.59-1.85-13.78-3.66-15.98-4.01-3.79-0.6-3.7-0.5 1.72 1.8 11.78 4.99 28.99 17.78 34.89 25.92 3.49 4.82 3.62 8.5 0.4 11.98-3.55 3.82-8.89 3.62-14.63-0.56-29.55-21.49-62.05-36.16-106.68-48.16-13.36-3.59-13.44-3.98-1.12-5.52 9.29-1.17 23.72-1.25 37.22-0.22 4.81 0.37 8.74 0.37 8.74 0 0-0.37-2.35-4.19-5.22-8.48-6.09-9.1-22.75-26.64-32.14-33.82-3.59-2.75-6.54-5.56-6.56-6.24-0.1-3.57 19.47 1.58 31.93 8.41 10.18 5.58 21.65 14.9 28.66 23.3l4.58 5.5-0.73-4.95c-2.87-19.57-14.3-44.13-29.66-63.73-3.76-4.81-6.84-9.42-6.84-10.24 0-6.19 24.45 8.6 37.51 22.7 8.87 9.57 16.87 20.86 21.88 30.88 5.08 10.13 5.29 9.95 2.61-2.13-3.64-16.42-11.64-32.8-22.93-46.92-3.28-4.1-5.72-7.84-5.43-8.32 1.78-2.88 17.17 6.12 26.79 15.67 8.46 8.4 14.15 15.86 18.37 24.08 3.6 7.04 3.89 5.43 1.05-5.82-5.01-19.81-15.17-40.84-28.11-58.2-7.26-9.73-3.33-11.32 8.47-3.43 8.78 5.87 18.26 15.67 25.2 26.03 5.28 7.89 15.73 27.76 16.78 31.89 0.34 1.35 0.86 2.21 1.16 1.92 0.29-0.29-0.42-4.3-1.58-8.9-3.33-13.15-0.98-27.25 5.98-35.91 2.57-3.2 2.91-4.51 3.32-12.54 0.51-10.32 2.58-15.88 8.98-24.17 2.25-2.93 3.93-5.42 3.71-5.54-0.21-0.13-2.44-1.26-4.95-2.52-10.96-5.5-22.42-19.44-27.07-32.93-4.09-11.84-3.09-26.47 2.71-39.82l2.22-5.12-12.12-0.54c-7.97-0.36-14.52-1.26-19.12-2.63-18.97-5.64-47.46-23.59-47.45-29.88 0.01-2.84 3.65-7.86 12.12-16.68 21.94-22.85 42.09-31.92 78.21-35.22l7.92-0.72 1.16-5.15c3.81-16.98 24.01-30.18 40.44-26.44 4.24 0.96 4.67 0.86 7.5-1.81 3.53-3.35 7.98-5.71 13.2-7.03 5.47-1.37 15.58-0.42 21.04 1.98zm-15.61 15.97c-4.58 0-6.66 1.63-14.23 11.09-3.26 4.07-7.02 4.25-12.44 0.57-4.7-3.2-7.44-3.33-13.01-0.63-6.49 3.13-9.42 8.14-9.42 16.05 0 7.21-0.99 8.89-5.23 8.89-4.52 0-9.27 2.49-12.3 6.46-3.49 4.57-3.86 11.06-1 17.41l1.96 4.34-2.32 1.88c-1.27 1.03-3.16 1.87-4.2 1.87-2.21 0-2.54 4.1-0.84 10.24l1.05 3.75h5.54c4.98 0 5.9 0.35 8.95 3.4 2.3 2.3 3.39 4.33 3.39 6.29 0 4.88-3.61 6.85-6.97 3.81-1.34-1.21-2.21-1.27-4.76-0.31-3.08 1.17-3.11 1.26-3.11 8.23-0.01 5.46-0.83 9.52-3.68 18.04-3.11 9.28-3.6 11.92-3.18 16.98 1.04 12.56 8.35 24.06 20.38 32.04 8.71 5.78 15.9 7.65 27.8 7.21 16.03-0.58 24.39-5.66 32.14-19.51 3.78-6.77 6.54-8.38 10.91-6.39 3.17 1.44 4.67 5.54 3.84 10.46l-0.66 3.93 3.81-0.72c9.04-1.69 14.85-7.19 18.79-17.79 1.77-4.77 3.89-6.73 7.27-6.74 4.2-0.01 9.93-2.41 12.93-5.41 4.33-4.33 5.14-9.02 2.52-14.68l-2.02-4.38 2.42-2.27c3.04-2.86 3.9-6.17 2.85-10.97-1.06-4.84-0.74-7.21 1.27-9.43 2.04-2.25 6.07-2.29 17.23-0.18 11.45 2.16 26.26 1.45 34.48-1.66 7.55-2.85 16.74-8.23 21.66-12.68l3.83-3.46-2.72-3.58c-10.89-14.29-35.77-25.9-59.45-27.71-8.63-0.65-8.81-0.72-11.79-4.43-1.66-2.07-4.05-4.31-5.31-4.99-2.02-1.08-2.62-0.87-5.36 1.86-2.24 2.24-4.01 3.08-6.5 3.08-4.95 0-6.72-2.46-6.72-9.35 0-10.25-4.43-16.46-12.36-17.36-3.46-0.39-5.28-0.02-7.92 1.62-4.1 2.53-7.94 2.72-9.79 0.5-0.74-0.89-2.48-3.88-3.87-6.64-1.67-3.32-3.7-5.64-6.01-6.87-1.91-1.02-5.45-1.86-7.85-1.86zm-87.33 44.46c-0.13-0.08-1.13 0.01-2.23 0.19-13.28 2.16-22.65 5.74-33.73 12.88-7.46 4.8-17.72 13.04-17.71 14.23 0 0.89 15.13 9.48 21.47 12.2 10.79 4.61 32.45 6.96 31.07 3.36-0.34-0.87-0.88-2.67-1.21-3.99-0.53-2.12-1.17-2.41-5.31-2.41-8.26 0-22.25-5.23-26.46-9.89-1.05-1.16-1.72-2.25-1.5-2.42 4.9-3.74 20.82-9.28 29.68-10.33l4.93-0.58 0.61-6.56c0.34-3.61 0.51-6.61 0.39-6.68zm200.13 19.09c6.82 2.02 13.88 5.57 16.2 8.14 1.74 1.93 1.67 2.06-3 5.06-8.45 5.42-14.07 7.38-22.72 7.92-9.47 0.59-15.9-0.6-26.02-4.82-11.85-4.93-15.09-9.49-8.6-12.13 1.44-0.58 6.44-2.1 11.11-3.37 10.49-2.86 24.92-3.21 33.03-0.8zm-96.69 20.55l5.97 2.18 4.12-2.18c5.1-2.71 6.8-2.73 9.14-0.15 2.58 2.86 1.04 6.61-4.25 10.33-5.59 3.93-12.94 4.62-19.19 1.79l-4.43-2.01-3.79 2.17c-4.55 2.61-7.17 1.59-7.63-2.98-0.36-3.59 2.85-8.01 7.21-9.91 4.25-1.85 5.97-1.75 12.85 0.76zm-74.46 31.13c1.94 0.32 5.33 1.76 7.52 3.21l3.98 2.64 5.12-2.46c7.93-3.81 11.07-4.1 14.3-1.32 2.42 2.08 2.6 2.63 1.58 4.87-0.69 1.52-3.67 3.86-7.46 5.87l-6.3 3.33-0.31 5.44c-0.47 8.29 0.25 9.91 5.47 12.22 5.61 2.48 10.54 1.94 17.42-1.93 4.66-2.62 4.8-2.64 6.82-0.81 4.46 4.04 1.74 8.48-7.92 12.97-8.75 4.07-20.38 3.15-26.14-2.06-1.58-1.43-2-1.38-4.83 0.64-3.4 2.42-9.46 3.6-13.4 2.61-3.88-0.97-7.58-5.55-7.58-9.37q0.01-6.29 6.56-2.76c6.51 3.5 11.43 0.15 11.41-7.78-0.02-7.81-0.78-9.37-6.12-12.66-6.24-3.84-7.8-6.9-5.4-10.57 1.5-2.29 2.23-2.57 5.28-2.08zm124.13 40.64c-0.82 0.55-3.39 1.49-5.71 2.09-3.61 0.95-4.64 1.86-7.2 6.4-7.75 13.73-22.6 21.52-38.13 20.01-5.4-0.53-6.82-0.35-7.93 0.98-1.9 2.29-11.48 6.97-18.5 9.03-3.71 1.09-9.59 1.78-15.64 1.84l-9.7 0.08 0.61 2.5c1.67 6.94 5.71 13.63 12.37 20.49 8.76 9.03 8.92 11.03 0.89 10.87-8.88-0.16-20.79-7.74-27.31-17.37-1.41-2.09-1.84-2.25-2.61-1.01-0.52 0.82-1.19 3.74-1.5 6.49-1.2 10.57 4.21 22.98 14.19 32.61 5.67 5.45 6.19 6.8 3.62 9.37-1.22 1.22-2.59 1.48-5.24 1-5.13-0.93-13.56-4.93-17.87-8.48l-3.69-3.05-0.63 2.36c-0.86 3.19 0.8 13.17 3.01 18.11 0.99 2.22 3.94 6.66 6.57 9.86 5.86 7.16 5.47 7.77-6.47 10.12-12.14 2.39-21.48 7.15-28.13 14.33-6.04 6.52-8.07 11.58-7.97 19.81 0.07 5.86 2.13 11.62 5.43 15.21 4.44 4.83 6.45 5.09 39.36 5.19 16.95 0.05 32.02-0.21 33.49-0.58 2.22-0.56 3.04-1.77 4.82-7.13 1.19-3.56 2-6.57 1.8-6.71-0.19-0.14-3.51-1.88-7.38-3.88-7.53-3.88-20.26-7.92-30.57-9.7-11.08-1.91-11.9-2.16-13.89-4.3-1.08-1.16-1.96-3.37-1.96-4.91 0-6.37 6.46-8.49 22.89-7.5 13.92 0.84 31.66 6.6 38.28 12.43 1.57 1.38 1.81 1.28 2.72-1.12 6.33-16.63 36.23-39.96 42.81-33.39 2.52 2.52 1.16 5.84-5.49 13.47-3.68 4.22-5.82 7.3-4.75 6.84 11.41-4.9 30.5-7.73 38.06-5.65q8.59 2.37 8.59 7.62c0 4.75-3.66 6.97-13.84 8.37-17.86 2.47-43.15 12.81-51.32 20.97-10.26 10.27-7.63 25.2 5.13 29.02 9.1 2.73 18.33 1.73 59.78-6.51 31.87-6.33 36.41-7.78 42.06-13.42 13.88-13.84 11.44-36.94-6.05-57.41-2.82-3.3-5.4-7.09-5.74-8.43-0.76-3.03 1.4-7.04 4.84-8.97 2.31-1.29 3.09-1.26 7.03 0.24 7.83 2.99 19.44 16.21 24.71 28.14 2.97 6.74 5.04 15.85 5.06 22.3l0.01 5.31 4.65-3.81c9.86-8.07 19.31-22.44 22.89-34.78 1.17-4.05 1.72-9.32 1.68-16.25-0.05-9.1 0.16-10.4 1.91-11.62 4.59-3.22 8.03 1.05 9.73 12.07 2.08 13.59 1.45 22.61-2.46 35.18-0.6 1.92-0.47 2.23 0.66 1.53 0.77-0.47 5.53-2.02 10.57-3.43l9.17-2.57-3.43-5.46c-5.83-9.29-7.77-17.41-7.15-29.81 0.64-12.83 3.6-21.68 10.17-30.47 11.31-15.11 28.96-23.24 36.03-16.59 2.45 2.3 3.09 5.23 1.85 8.46-0.35 0.91-3.42 3.42-6.84 5.57-7.2 4.55-14.66 11.54-18.27 18.49-3.26 6.27-4.5 14.69-3.75 20.73 0.85 6.79 5.55 16.42 10.48 21.5 7 7.22 10.53 8.93 21.96 10.64 14.14 2.12 14.69 2.3 17.54 5.69 3.1 3.69 3.11 4.97 0.08 8.5l-2.41 2.8-26.81 0.05c-24.98 0.06-27.27 0.21-33.54 2.29-12.47 4.13-24.31 15.61-28.31 27.44-0.89 2.65-1.45 4.99-1.24 5.2 0.21 0.21 6.89 0.45 14.84 0.53 7.95 0.09 14.79 0.36 15.21 0.62 0.42 0.26-0.59 2.11-2.24 4.12-1.66 2.02-3.02 4.01-3.02 4.43q0 2.73 13.7-4.1c19.7-9.83 43.99-13.35 89.91-13.01 27.76 0.2 28.58 0.04 31.75-6.08 6.17-11.94-0.51-28.63-17.82-44.47-9.35-8.55-10.6-11.41-6.61-15.02 2.17-1.96 11.02-2.64 16.02-1.24l2.57 0.73-0.86-6.72c-2.47-19.17-12.8-39.78-27.91-55.69-21.51-22.65-49.91-36.5-89.26-43.54-16.89-3.03-52.56-3.77-71.27-1.49-25.1 3.07-51.42 9.87-52.61 13.61-0.33 1.04-1.96 3.03-3.62 4.43-3.86 3.24-8.98 3.4-11.82 0.35-2.44-2.63-2.44-2.38-0.42-11.77 1.41-6.59 1.45-8.37 0.25-14.44-1.4-7.1-2.26-8.26-4.86-6.54z"/>
				</g>
			</g>
		</g>
	</g>
</svg>