<svg xmlns="http://www.w3.org/2000/svg" viewBox="800 800 1600 1600" width="512" height="512"><path d="M1196.153 894.091 C 1180.462 898.040,1167.119 905.139,1156.500 915.190 C 1148.026 923.209,1146.710 923.528,1134.000 920.635 C 1084.642 909.403,1024.000 949.041,1012.537 1000.031 L 1009.059 1015.500 985.279 1017.669 C 876.801 1027.566,816.283 1054.818,750.406 1123.437 C 724.981 1149.920,714.030 1164.990,714.011 1173.520 C 713.969 1192.418,799.530 1246.304,856.500 1263.261 C 870.306 1267.370,889.974 1270.071,913.912 1271.147 L 950.323 1272.784 943.652 1288.142 C 926.232 1328.247,923.239 1372.161,935.501 1407.729 C 949.470 1448.247,983.887 1490.109,1016.814 1506.632 C 1024.341 1510.410,1031.028 1513.803,1031.674 1514.174 C 1032.319 1514.544,1027.299 1522.039,1020.519 1530.828 C 1001.311 1555.725,995.108 1572.422,993.553 1603.423 C 992.343 1627.530,991.301 1631.466,983.588 1641.064 C 962.685 1667.075,955.632 1709.417,965.622 1748.922 C 969.114 1762.731,971.249 1774.751,970.367 1775.633 C 969.484 1776.516,967.923 1773.922,966.896 1769.869 C 963.753 1757.454,932.360 1697.800,916.495 1674.097 C 895.677 1642.993,867.186 1613.565,840.819 1595.929 C 805.391 1572.234,793.602 1577.008,815.386 1606.227 C 854.260 1658.370,884.767 1721.528,899.805 1781.000 C 908.349 1814.791,907.476 1819.627,896.645 1798.500 C 883.986 1773.808,866.902 1751.412,841.475 1726.178 C 812.586 1697.509,766.387 1670.475,761.047 1679.115 C 760.163 1680.546,767.496 1691.793,777.343 1704.108 C 811.240 1746.502,835.283 1795.687,846.217 1845.000 C 854.264 1881.298,853.612 1881.831,838.380 1851.403 C 823.319 1821.316,799.280 1787.398,772.670 1758.684 C 733.426 1716.339,660.000 1671.905,660.000 1690.501 C 660.000 1692.977,669.253 1706.814,680.562 1721.251 C 726.666 1780.107,760.999 1853.876,769.631 1912.631 L 771.816 1927.500 758.052 1911.000 C 737.003 1885.768,702.564 1857.760,672.000 1841.017 C 634.575 1820.517,575.796 1805.028,576.110 1815.750 C 576.170 1817.813,585.040 1826.250,595.821 1834.500 C 623.994 1856.059,674.041 1908.729,692.317 1936.055 C 700.943 1948.951,708.000 1960.410,708.000 1961.518 C 708.000 1962.626,696.188 1962.631,681.750 1961.528 C 641.210 1958.431,597.870 1958.683,569.993 1962.179 C 532.986 1966.819,533.221 1967.980,573.350 1978.769 C 707.366 2014.797,804.972 2058.864,893.700 2123.399 C 910.962 2135.955,926.986 2136.561,937.643 2125.062 C 947.305 2114.637,946.940 2103.578,936.458 2089.108 C 918.742 2064.652,867.044 2026.236,831.675 2011.245 C 815.399 2004.347,815.128 2004.065,826.500 2005.865 C 833.100 2006.909,854.700 2012.328,874.500 2017.907 C 938.192 2035.853,1008.774 2074.677,1069.425 2125.125 C 1103.336 2153.331,1113.382 2155.672,1131.750 2139.650 C 1148.944 2124.651,1119.098 2084.061,1061.235 2043.750 C 1051.169 2036.738,1044.919 2031.000,1047.346 2031.000 C 1057.824 2031.000,1107.260 2047.491,1132.288 2059.335 C 1161.533 2073.174,1189.338 2091.967,1221.969 2119.948 C 1262.076 2154.340,1271.446 2157.826,1285.636 2143.636 C 1300.800 2128.473,1291.071 2106.478,1252.251 2068.158 C 1239.905 2055.971,1230.353 2046.000,1231.025 2046.000 C 1231.696 2046.000,1244.228 2050.815,1258.873 2056.700 C 1311.628 2077.900,1346.450 2101.849,1396.770 2151.543 L 1427.039 2181.435 1436.243 2156.468 C 1448.137 2124.203,1454.060 2105.089,1457.926 2086.500 C 1464.641 2054.214,1462.636 2055.168,1479.160 2076.397 C 1493.906 2095.342,1533.000 2168.085,1533.000 2176.578 C 1533.000 2185.896,1538.174 2180.315,1544.892 2163.750 C 1555.071 2138.654,1571.209 2110.366,1588.078 2088.052 C 1613.550 2054.357,1622.187 2047.446,1619.075 2063.250 C 1617.030 2073.634,1621.566 2113.210,1627.836 2139.688 L 1632.616 2159.877 1654.839 2140.495 C 1693.749 2106.560,1740.791 2077.465,1789.500 2057.209 C 1821.013 2044.104,1821.177 2044.974,1792.588 2073.651 C 1762.400 2103.930,1753.478 2117.526,1756.332 2128.899 C 1759.153 2140.138,1768.826 2148.000,1779.832 2148.000 C 1790.928 2148.000,1793.826 2146.222,1831.703 2116.181 C 1878.195 2079.306,1918.314 2057.375,1967.979 2041.686 C 1992.009 2034.095,2016.000 2027.922,2016.000 2029.330 C 2016.000 2029.710,2005.263 2037.088,1992.139 2045.724 C 1963.388 2064.645,1927.315 2099.120,1921.363 2113.364 C 1913.648 2131.830,1924.237 2147.728,1944.368 2147.905 C 1953.378 2147.984,1960.815 2143.813,1987.868 2123.512 C 2036.723 2086.850,2066.256 2068.369,2106.847 2049.057 C 2145.732 2030.558,2206.547 2008.944,2229.000 2005.645 C 2242.032 2003.729,2241.612 2004.116,2216.890 2016.784 C 2157.462 2047.236,2109.000 2089.757,2109.000 2111.446 C 2109.000 2119.711,2119.639 2132.040,2128.179 2133.673 C 2138.570 2135.659,2148.707 2130.686,2190.111 2103.291 C 2268.143 2051.661,2369.842 2007.943,2473.403 1981.510 C 2494.800 1976.049,2512.764 1970.207,2513.324 1968.528 C 2515.056 1963.332,2481.996 1960.493,2421.750 1960.663 C 2389.988 1960.753,2364.000 1960.039,2364.000 1959.077 C 2364.000 1958.114,2372.011 1944.940,2381.802 1929.800 C 2402.119 1898.383,2439.440 1858.121,2469.482 1835.209 C 2480.767 1826.603,2490.000 1818.493,2490.000 1817.187 C 2490.000 1808.040,2447.143 1816.944,2413.204 1833.141 C 2387.668 1845.328,2351.481 1872.703,2328.971 1896.861 L 2310.442 1916.747 2317.834 1900.033 C 2337.148 1856.360,2353.140 1832.161,2384.108 1799.748 C 2396.402 1786.879,2404.917 1775.685,2403.213 1774.632 C 2398.208 1771.538,2375.898 1778.729,2355.000 1790.172 C 2341.922 1797.332,2324.879 1811.494,2303.250 1833.171 C 2285.513 1850.949,2271.000 1864.532,2271.000 1863.357 C 2271.000 1862.181,2276.227 1845.661,2282.615 1826.646 C 2303.352 1764.921,2335.693 1707.903,2373.125 1667.076 C 2386.844 1652.113,2390.961 1645.761,2388.522 1643.322 C 2375.899 1630.699,2295.685 1686.685,2263.500 1730.583 C 2258.550 1737.334,2253.673 1742.890,2252.663 1742.929 C 2251.653 1742.968,2249.962 1735.646,2248.905 1726.657 C 2242.887 1675.446,2202.647 1602.874,2150.621 1549.400 C 2113.954 1511.712,2077.052 1484.855,2029.500 1461.247 C 1939.304 1416.469,1846.663 1397.522,1719.000 1397.745 C 1640.593 1397.881,1558.187 1408.504,1496.664 1426.405 L 1482.827 1430.431 1479.329 1414.797 C 1477.404 1406.198,1471.770 1390.578,1466.808 1380.086 C 1457.887 1361.222,1457.844 1360.890,1462.953 1350.255 C 1466.105 1343.695,1468.617 1329.554,1469.395 1314.000 L 1470.669 1288.500 1516.085 1288.385 C 1559.386 1288.276,1562.827 1287.815,1590.000 1278.482 C 1625.586 1266.260,1651.818 1250.854,1686.280 1221.941 C 1718.975 1194.509,1723.966 1186.514,1717.724 1171.572 C 1706.930 1145.739,1669.889 1103.073,1639.312 1081.254 C 1583.892 1041.707,1519.737 1023.498,1447.115 1026.703 L 1413.000 1028.208 1413.000 1018.481 C 1413.000 994.219,1393.966 962.333,1370.023 946.486 C 1351.968 934.536,1320.947 925.656,1307.542 928.601 C 1299.560 930.354,1296.729 929.025,1285.928 918.453 C 1279.093 911.762,1267.123 903.475,1259.329 900.038 C 1242.951 892.816,1212.580 889.957,1196.153 894.091 M1236.047 953.577 C 1242.962 957.267,1249.065 964.250,1254.080 974.212 C 1258.249 982.494,1263.477 991.460,1265.697 994.135 C 1271.245 1000.820,1282.803 1000.229,1295.095 992.632 C 1303.021 987.734,1308.510 986.615,1318.886 987.785 C 1342.710 990.470,1356.000 1009.138,1356.000 1039.917 C 1356.000 1060.611,1361.314 1068.000,1376.196 1068.000 C 1383.664 1068.000,1388.982 1065.479,1395.711 1058.750 C 1403.922 1050.539,1405.731 1049.912,1411.814 1053.168 C 1415.584 1055.186,1422.756 1061.924,1427.753 1068.142 C 1436.698 1079.273,1437.247 1079.479,1463.170 1081.460 C 1534.255 1086.891,1608.999 1121.733,1641.683 1164.673 L 1649.866 1175.423 1638.361 1185.817 C 1623.592 1199.160,1595.996 1215.308,1573.323 1223.874 C 1548.623 1233.206,1504.141 1235.347,1469.766 1228.858 C 1436.242 1222.529,1424.144 1222.658,1418.034 1229.410 C 1411.996 1236.082,1411.035 1243.195,1414.208 1257.730 C 1417.355 1272.142,1414.770 1282.093,1405.653 1290.661 L 1398.375 1297.500 1404.450 1310.632 C 1412.310 1327.623,1409.889 1341.711,1396.873 1354.727 C 1387.861 1363.739,1370.654 1370.945,1358.053 1370.983 C 1347.885 1371.014,1341.536 1376.895,1336.208 1391.216 C 1324.369 1423.037,1306.927 1439.553,1279.780 1444.645 L 1268.339 1446.792 1270.329 1435.011 C 1272.826 1420.233,1268.302 1407.920,1258.781 1403.582 C 1245.658 1397.603,1237.385 1402.447,1226.024 1422.763 C 1202.756 1464.368,1177.647 1479.615,1129.500 1481.374 C 1093.783 1482.679,1072.171 1477.072,1046.025 1459.717 C 1009.903 1435.740,987.936 1401.209,984.819 1363.500 C 983.562 1348.296,985.046 1340.373,994.371 1312.500 C 1002.927 1286.923,1005.411 1274.738,1005.413 1258.329 C 1005.416 1237.382,1005.514 1237.121,1014.774 1233.626 C 1022.434 1230.735,1025.024 1230.902,1029.052 1234.547 C 1039.142 1243.678,1050.000 1237.745,1050.000 1223.100 C 1050.000 1217.206,1046.710 1211.110,1039.800 1204.200 C 1030.649 1195.049,1027.887 1194.000,1012.941 1194.000 L 996.282 1194.000 993.158 1182.750 C 988.032 1164.294,989.036 1152.000,995.668 1152.000 C 998.785 1152.000,1004.465 1149.466,1008.290 1146.369 L 1015.244 1140.738 1009.372 1127.705 C 1000.777 1108.630,1001.891 1089.143,1012.360 1075.417 C 1021.449 1063.501,1035.720 1056.000,1049.304 1056.000 C 1062.034 1056.000,1065.000 1050.957,1065.000 1029.311 C 1065.000 1005.559,1073.819 990.527,1093.282 981.106 C 1110.015 973.005,1118.259 973.404,1132.380 983.000 C 1148.634 994.044,1159.936 993.524,1169.727 981.279 C 1192.444 952.870,1198.695 948.000,1212.444 948.000 C 1219.676 948.000,1230.298 950.510,1236.047 953.577 M949.040 1101.569 L 947.202 1121.259 932.385 1123.014 C 905.775 1126.165,857.989 1142.793,843.268 1154.024 C 842.591 1154.540,844.616 1157.817,847.768 1161.306 C 860.409 1175.294,902.433 1191.000,927.219 1191.000 C 939.644 1191.000,941.568 1191.872,943.162 1198.221 C 944.159 1202.193,945.800 1207.593,946.808 1210.221 C 950.957 1221.034,885.901 1213.986,853.500 1200.112 C 834.464 1191.961,789.023 1166.151,789.010 1163.482 C 788.993 1159.922,819.815 1135.157,842.197 1120.747 C 875.480 1099.319,903.623 1088.577,943.500 1082.082 C 946.800 1081.544,949.810 1081.279,950.189 1081.492 C 950.569 1081.705,950.052 1090.739,949.040 1101.569 M1452.000 1141.230 C 1437.975 1145.048,1422.972 1149.606,1418.659 1151.357 C 1399.168 1159.271,1408.877 1172.977,1444.474 1187.796 C 1474.868 1200.449,1494.187 1204.021,1522.625 1202.247 C 1548.590 1200.627,1565.469 1194.742,1590.838 1178.462 C 1604.868 1169.459,1605.095 1169.077,1599.865 1163.289 C 1592.884 1155.563,1571.692 1144.913,1551.205 1138.835 C 1526.842 1131.606,1483.503 1132.652,1452.000 1141.230 M1222.246 1198.264 C 1209.155 1203.964,1199.511 1217.232,1200.604 1228.038 C 1201.992 1241.755,1209.835 1244.817,1223.510 1236.981 L 1234.885 1230.462 1248.193 1236.486 C 1266.960 1244.980,1289.031 1242.927,1305.826 1231.122 C 1321.709 1219.960,1326.348 1208.672,1318.582 1200.091 C 1311.564 1192.336,1306.455 1192.418,1291.133 1200.533 L 1278.766 1207.083 1260.825 1200.542 C 1240.179 1193.014,1235.006 1192.708,1222.246 1198.264 M1021.369 1300.278 C 1014.151 1311.295,1018.855 1320.505,1037.591 1332.034 C 1053.630 1341.902,1055.897 1346.593,1055.959 1370.036 C 1056.022 1393.853,1041.252 1403.927,1021.705 1393.401 C 1008.595 1386.340,1002.000 1389.114,1002.000 1401.687 C 1002.000 1413.169,1013.116 1426.911,1024.770 1429.836 C 1036.609 1432.807,1054.808 1429.258,1065.021 1421.985 C 1073.517 1415.936,1074.773 1415.769,1079.521 1420.067 C 1096.815 1435.718,1131.738 1438.479,1158.000 1426.272 C 1187.032 1412.778,1195.186 1399.433,1181.800 1387.319 C 1175.718 1381.815,1175.325 1381.862,1161.318 1389.735 C 1140.658 1401.349,1125.864 1402.990,1109.015 1395.537 C 1093.341 1388.604,1091.160 1383.736,1092.573 1358.840 L 1093.500 1342.500 1112.434 1332.488 C 1123.796 1326.480,1132.750 1319.440,1134.826 1314.885 C 1137.890 1308.161,1137.348 1306.490,1130.077 1300.235 C 1120.374 1291.889,1110.945 1292.761,1087.136 1304.209 L 1071.772 1311.596 1059.806 1303.678 C 1053.225 1299.322,1043.060 1294.983,1037.216 1294.035 C 1028.060 1292.549,1025.868 1293.413,1021.369 1300.278 M1424.595 1435.728 C 1428.186 1453.937,1428.093 1459.285,1423.845 1479.069 C 1417.790 1507.273,1417.764 1506.542,1425.117 1514.434 C 1433.641 1523.584,1449.018 1523.122,1460.609 1513.368 C 1465.598 1509.171,1470.489 1503.186,1471.478 1500.068 C 1475.039 1488.849,1554.076 1468.413,1629.472 1459.215 C 1685.663 1452.361,1792.786 1454.589,1843.500 1463.668 C 1961.661 1484.820,2046.945 1526.424,2111.542 1594.428 C 2156.927 1642.207,2187.951 1704.112,2195.359 1761.676 L 2197.955 1781.852 2190.227 1779.676 C 2175.208 1775.447,2148.626 1777.503,2142.112 1783.399 C 2130.133 1794.240,2133.907 1802.811,2161.968 1828.493 C 2213.942 1876.060,2234.027 1926.172,2215.488 1962.023 C 2205.975 1980.419,2203.499 1980.893,2120.138 1980.286 C 1982.230 1979.283,1909.299 1989.835,1850.143 2019.352 C 1822.708 2033.041,1809.000 2037.150,1809.000 2031.684 C 1809.000 2030.409,1813.072 2024.427,1818.048 2018.390 C 1823.024 2012.353,1826.062 2006.782,1824.798 2006.010 C 1823.534 2005.237,1802.971 2004.403,1779.102 2004.155 C 1755.233 2003.907,1735.183 2003.183,1734.546 2002.546 C 1733.910 2001.910,1735.586 1994.889,1738.270 1986.944 C 1750.282 1951.404,1785.846 1916.922,1823.273 1904.529 C 1842.120 1898.288,1848.993 1897.820,1924.009 1897.666 L 2004.518 1897.500 2011.759 1889.083 C 2020.871 1878.490,2020.834 1874.639,2011.509 1863.558 C 2002.945 1853.380,2001.322 1852.854,1958.847 1846.484 C 1924.519 1841.337,1913.926 1836.205,1892.895 1814.534 C 1878.079 1799.266,1863.990 1770.342,1861.438 1749.949 C 1859.171 1731.833,1864.082 1704.643,1872.679 1687.720 C 1881.276 1670.795,1905.931 1645.845,1927.549 1632.192 C 1937.807 1625.713,1947.055 1618.184,1948.100 1615.461 C 1951.820 1605.766,1949.894 1596.946,1942.550 1590.047 C 1921.302 1570.085,1868.305 1594.485,1834.346 1639.864 C 1814.592 1666.262,1805.711 1692.852,1803.782 1731.372 C 1801.918 1768.605,1807.773 1793.001,1825.270 1820.902 L 1835.556 1837.304 1808.028 1845.005 C 1792.888 1849.241,1778.600 1853.883,1776.277 1855.322 C 1772.905 1857.411,1772.507 1856.484,1774.302 1850.719 C 1786.060 1812.951,1787.953 1785.863,1781.685 1745.075 C 1776.596 1711.964,1766.269 1699.143,1752.471 1708.807 C 1747.215 1712.489,1746.574 1716.385,1746.727 1743.726 C 1746.843 1764.521,1745.207 1780.337,1741.680 1792.500 C 1730.934 1829.567,1702.549 1872.717,1672.964 1896.960 L 1659.000 1908.402 1658.956 1892.451 C 1658.902 1873.093,1652.688 1845.733,1643.749 1825.500 C 1627.923 1789.674,1593.061 1749.957,1569.565 1740.983 C 1557.737 1736.466,1555.365 1736.386,1548.444 1740.271 C 1538.118 1746.067,1531.622 1758.111,1533.916 1767.208 C 1534.927 1771.219,1542.674 1782.600,1551.132 1792.500 C 1603.666 1853.990,1610.984 1923.370,1569.320 1964.932 C 1552.341 1981.869,1538.707 1986.218,1443.000 2005.229 C 1318.521 2029.955,1290.800 2032.975,1263.469 2024.786 C 1225.176 2013.313,1217.260 1968.455,1248.088 1937.627 C 1272.609 1913.105,1348.544 1882.076,1402.181 1874.659 C 1432.770 1870.430,1443.750 1863.788,1443.750 1849.514 C 1443.750 1839.005,1435.158 1831.382,1417.966 1826.639 C 1395.257 1820.373,1337.928 1828.873,1303.664 1843.586 C 1300.454 1844.964,1306.867 1835.728,1317.914 1823.061 C 1337.902 1800.142,1341.967 1790.167,1334.400 1782.600 C 1314.663 1762.863,1224.847 1832.928,1205.857 1882.877 C 1203.115 1890.089,1202.388 1890.387,1197.674 1886.233 C 1177.813 1868.731,1124.527 1851.433,1082.716 1848.913 C 1033.381 1845.940,1014.000 1852.292,1014.000 1871.434 C 1014.000 1876.073,1016.640 1882.703,1019.868 1886.167 C 1025.857 1892.595,1028.313 1893.357,1061.570 1899.092 C 1092.531 1904.431,1130.781 1916.572,1153.388 1928.237 C 1165.000 1934.228,1174.976 1939.464,1175.558 1939.873 C 1176.140 1940.282,1173.711 1949.348,1170.160 1960.020 C 1164.798 1976.133,1162.341 1979.766,1155.673 1981.439 C 1151.258 1982.548,1106.002 1983.330,1055.107 1983.177 C 956.254 1982.881,950.233 1982.088,936.893 1967.596 C 926.978 1956.824,920.792 1939.504,920.582 1921.930 C 920.286 1897.187,926.399 1881.991,944.521 1862.418 C 964.486 1840.853,992.553 1826.556,1029.000 1819.386 C 1064.852 1812.333,1066.018 1810.510,1048.426 1789.013 C 1040.544 1779.381,1031.662 1766.049,1028.689 1759.387 C 1022.066 1744.546,1017.092 1714.598,1019.657 1705.006 L 1021.549 1697.931 1032.631 1707.066 C 1045.568 1717.730,1070.895 1729.754,1086.288 1732.541 C 1094.271 1733.987,1098.367 1733.204,1102.038 1729.533 C 1109.749 1721.822,1108.183 1717.763,1091.179 1701.386 C 1061.182 1672.495,1044.941 1635.198,1048.544 1603.474 C 1049.483 1595.210,1051.506 1586.435,1053.041 1583.974 C 1055.368 1580.242,1056.673 1580.744,1060.906 1587.000 C 1080.483 1615.928,1116.247 1638.692,1142.906 1639.192 C 1167.030 1639.645,1166.539 1633.666,1140.224 1606.528 C 1120.242 1585.920,1108.113 1565.830,1103.079 1545.000 L 1101.266 1537.500 1130.383 1537.238 C 1148.564 1537.074,1166.202 1535.006,1177.343 1531.732 C 1198.433 1525.533,1227.195 1511.495,1232.908 1504.610 C 1236.229 1500.610,1240.518 1500.079,1256.729 1501.661 C 1303.360 1506.213,1347.946 1482.811,1371.223 1441.567 C 1378.920 1427.928,1382.001 1425.193,1392.850 1422.366 C 1399.807 1420.553,1407.525 1417.726,1410.000 1416.083 C 1417.804 1410.905,1420.387 1414.382,1424.595 1435.728 " stroke="none" fill="black" fill-rule="evenodd"/></svg>